# xmcd
#
# Track frame offsets:
#	150
#	15672
#	30997
#	44466
#	59777
#	75773
#	91692
#	106169
#	123334
#	137676
#	155612
#	172162
#	189549
#	203730
#	225631
#	242618
#	254514
#	266754
#	281819
#	298580
#	314357
#
# Disc length: 4418 seconds
#
# Revision: 1
# Processed by: cddbd v1.5.2PL0 Copyright (c) Steve Scherf et al.
# Submitted via: audiograbber 1.83.01
#
DISCID=25114015
DTITLE=B.J. Thomas - New Looks from an Old Lover - Complete Columbia Singles
DYEAR=1979
DGENRE=Pop
TTITLE0=Whatever Happened to Old Fashioned Love
TTITLE1=I Just Sing
TTITLE2=New Looks from an Old Lover
TTITLE3=You Keep the Main in Me Happy
TTITLE4=Two Car Garage
TTITLE5=Beautiful World
TTITLE6=The Whole World's in Love
TTITLE7=We're Here to Love
TTITLE8=The Girl Most Likely To
TTITLE9=From This Moment On
TTITLE10=The Part of Me
TTITLE11=Northern Lights
TTITLE12=America Is
TTITLE13=Broken Toys
TTITLE14=Night Life
TTITLE15=Make the World Go Away
TTITLE16=Rock and Roll Shoes
TTITLE17=Pray for Me
TTITLE18=This Love is Forever
TTITLE19=As Long as We Got Each Other
TTITLE20=The Wind Beneath My Wings
EXTD=
EXTT0=
EXTT1=
EXTT2=
EXTT3=
EXTT4=
EXTT5=
EXTT6=
EXTT7=
EXTT8=
EXTT9=
EXTT10=
EXTT11=
EXTT12=
EXTT13=
EXTT14=
EXTT15=
EXTT16=
EXTT17=
EXTT18=
EXTT19=
EXTT20=
PLAYORDER=
